<svg xmlns="http://www.w3.org/2000/svg" xmlns:xlink="http://www.w3.org/1999/xlink" width="180" height="180" version="1.1" viewBox="0 0 180 180"><title>icon/l/heart</title><defs><linearGradient id="linearGradient-1" x1="50%" x2="50%" y1="0%" y2="100%"><stop offset="0%" stop-color="#FFDB1B" stop-opacity=".7"/><stop offset="100%" stop-color="#FFF"/></linearGradient></defs><g id="色彩规范" fill="none" fill-rule="evenodd" stroke="none" stroke-width="1"><g id="NutBox-icon" fill="url(#linearGradient-1)" fill-rule="nonzero" transform="translate(-94.000000, -686.000000)"><g id="icon/heart/l/n" transform="translate(94.000000, 686.000000)"><path id="形状结合" d="M129.166667,5 C159.082091,5 183.333333,29.2512427 183.333333,59.1666667 C183.333333,71.7039939 179.073883,83.2464732 171.923151,92.4259342 C160.917114,107.503716 148.146753,121.211706 133.915749,133.246225 L133.909488,133.238164 C132.42041,134.628977 130.420899,135.480194 128.222575,135.480194 C123.620202,135.480194 119.889242,131.749234 119.889242,127.146861 C119.889242,124.425876 121.193338,122.009478 123.210606,120.488591 L123.202761,120.478497 C136.386404,109.323109 148.236722,96.6068429 158.461386,82.5995085 L158.775025,82.1836422 C163.866981,75.6470497 166.666667,67.6423442 166.666667,59.1666667 C166.666667,38.4559885 149.877345,21.6666667 129.166667,21.6666667 C121.891441,21.6666667 114.962819,23.7253522 108.986486,27.5515606 L100,33.3049496 L91.0135138,27.5515606 C85.0371806,23.7253522 78.108559,21.6666667 70.8333333,21.6666667 C50.1226552,21.6666667 33.3333333,38.4559885 33.3333333,59.1666667 C33.3333333,67.6423442 36.1330187,75.6470497 41.5386144,82.5995085 C57.4507942,104.398487 77.3001913,123.070591 99.9849792,137.598867 L99.9788371,137.610207 C102.491428,139.045378 104.184977,141.750604 104.184977,144.851379 C104.184977,149.453752 100.454017,153.184713 95.8516439,153.184713 C94.3170997,153.184713 92.8794322,152.769935 91.6446374,152.046375 L91.6434569,152.046867 C66.9013982,136.315585 45.3230498,116.052462 28.0768486,92.4259342 C20.9261174,83.2464732 16.6666667,71.7039939 16.6666667,59.1666667 C16.6666667,29.2512427 40.9179094,5 70.8333333,5 C81.5720192,5 91.580829,8.1249707 100,13.5151493 C108.419171,8.1249707 118.427981,5 129.166667,5 Z M100,42.5 C104.602373,42.5 108.333333,46.2309604 108.333333,50.8333333 L108.333333,63.333 L120.833333,63.3333333 C125.435706,63.3333333 129.166667,67.0642938 129.166667,71.6666667 C129.166667,76.2690396 125.435706,80 120.833333,80 L108.333333,80 L108.333333,92.5 C108.333333,97.1023729 104.602373,100.833333 100,100.833333 C95.3976271,100.833333 91.6666667,97.1023729 91.6666667,92.5 L91.6663333,80 L79.1666667,80 C74.5642938,80 70.8333333,76.2690396 70.8333333,71.6666667 C70.8333333,67.0642938 74.5642938,63.3333333 79.1666667,63.3333333 L91.6663333,63.333 L91.6666667,50.8333333 C91.6666667,46.2309604 95.3976271,42.5 100,42.5 Z"/></g></g></g></svg>